# xmcd CD database file
#
# Track frame offsets:
#	150
#	17420
#	33857
#	49617
#	69145
#	84795
#	101277
#	122168
#	138851
#	155806
#	172002
#	191940
#	211193
#	226243
#	241452
#	258233
#	277491
#	294272
#	310867
#	329568
#
# Disc length: 4608 seconds
#
# Revision: 1
# Processed by: cddbd v1.5.2PL0 Copyright (c) Steve Scherf et al.
# Submitted via: CDex 1.51
#
DISCID=1411fe14
DTITLE=Various Artist - ZM-PCP-PART-3
DYEAR=1900
DGENRE=Blues
TTITLE0=5 Seconds Of Summer - Jet Black Heart
TTITLE1=Adam Lambert - The Original High
TTITLE2=Adele - Can't Let Go
TTITLE3=Adele - Sweetest Devotion
TTITLE4=Disclosure Ft Lorde - Magnets
TTITLE5=Duke Dumont - Ocean Drive
TTITLE6=Jess Glynne - Take Me Home
TTITLE7=Dakota Ft Jonas Blue - Fast Car
TTITLE8=Kelly Clarkson - Piece By Piece (american Idole version)
TTITLE9=Little Mix - Love Me Like You Do
TTITLE10=Little Mix Ft Jason Derulo - Secret Love Song
TTITLE11=Nathan Sykes and Adriana Grande - Over And Over Again
TTITLE12=Olly Murs - Stevie Knows
TTITLE13=One Direction - History
TTITLE14=Paul Heaton and Jacqui Abbot - I Don't See Them
TTITLE15=Rudimental Ft Ed Sheeran - Lay It All On Me
TTITLE16=Shawn Mendes - Stitches
TTITLE17=Sia - Cheap Thrills
TTITLE18=Taylor Swift - Out Of The Woods
TTITLE19=Zara Larsson - Lush Life
EXTD=
EXTT0=
EXTT1=
EXTT2=
EXTT3=
EXTT4=
EXTT5=
EXTT6=
EXTT7=
EXTT8=
EXTT9=
EXTT10=
EXTT11=
EXTT12=
EXTT13=
EXTT14=
EXTT15=
EXTT16=
EXTT17=
EXTT18=
EXTT19=
PLAYORDER=
